HIERARCHY
ROOT Hips
{
	OFFSET 0.00000 0.00000 0.00000
	CHANNELS 6 Xposition Yposition Zposition Zrotation Yrotation Xrotation 
	JOINT LHipJoint
	{
		OFFSET 0 0 0
		CHANNELS 3 Zrotation Yrotation Xrotation
		JOINT LeftUpLeg
		{
			OFFSET 1.84395 -1.68683 0.74144
			CHANNELS 3 Zrotation Yrotation Xrotation
			JOINT LeftLeg
			{
				OFFSET 2.27037 -6.23779 0.00000
				CHANNELS 3 Zrotation Yrotation Xrotation
				JOINT LeftFoot
				{
					OFFSET 2.56918 -7.05877 0.00000
					CHANNELS 3 Zrotation Yrotation Xrotation
					JOINT LeftToeBase
					{
						OFFSET 0.22276 -0.61202 1.71784
						CHANNELS 3 Zrotation Yrotation Xrotation
						End Site
						{
							OFFSET 0.00000 -0.00000 0.91613
						}
					}
				}
			}
		}
	}
	JOINT RHipJoint
	{
		OFFSET 0 0 0
		CHANNELS 3 Zrotation Yrotation Xrotation
		JOINT RightUpLeg
		{
			OFFSET -1.76833 -1.68684 0.74144
			CHANNELS 3 Zrotation Yrotation Xrotation
			JOINT RightLeg
			{
				OFFSET -2.49360 -6.85110 0.00000
				CHANNELS 3 Zrotation Yrotation Xrotation
				JOINT RightFoot
				{
					OFFSET -2.55538 -7.02085 0.00000
					CHANNELS 3 Zrotation Yrotation Xrotation
					JOINT RightToeBase
					{
						OFFSET -0.21516 -0.59115 1.68050
						CHANNELS 3 Zrotation Yrotation Xrotation
						End Site
						{
							OFFSET -0.00000 -0.00000 0.89604
						}
					}
				}
			}
		}
	}
	JOINT LowerBack
	{
		OFFSET 0 0 0
		CHANNELS 3 Zrotation Yrotation Xrotation
		JOINT Spine
		{
			OFFSET 0.06382 1.72312 -0.19613
			CHANNELS 3 Zrotation Yrotation Xrotation
			JOINT Spine1
			{
				OFFSET -0.00055 1.73507 0.23859
				CHANNELS 3 Zrotation Yrotation Xrotation
				JOINT Neck
				{
					OFFSET 0 0 0
					CHANNELS 3 Zrotation Yrotation Xrotation
					JOINT Neck1
					{
						OFFSET 0.03638 1.65562 0.09633
						CHANNELS 3 Zrotation Yrotation Xrotation
						JOINT Head
						{
							OFFSET 0.06388 1.62807 -0.32386
							CHANNELS 3 Zrotation Yrotation Xrotation
							End Site
							{
								OFFSET 0.00995 1.67644 -0.12021
							}
						}
					}
				}
				JOINT LeftShoulder
				{
					OFFSET 0 0 0
					CHANNELS 3 Zrotation Yrotation Xrotation
					JOINT LeftArm
					{
						OFFSET 3.09648 1.42991 0.28122
						CHANNELS 3 Zrotation Yrotation Xrotation
						JOINT LeftForeArm
						{
							OFFSET 5.11878 -0.00000 -0.00000
							CHANNELS 3 Zrotation Yrotation Xrotation
							JOINT LeftHand
							{
								OFFSET 3.59971 -0.00000 0.00000
								CHANNELS 3 Zrotation Yrotation Xrotation
								JOINT LeftFingerBase
								{
									OFFSET 0 0 0
									CHANNELS 3 Zrotation Yrotation Xrotation
									JOINT LeftHandIndex1
									{
										OFFSET 0.62877 -0.00000 0.00000
										CHANNELS 3 Zrotation Yrotation Xrotation
										End Site
										{
											OFFSET 0.50693 -0.00000 0.00000
										}
									}
								}
								JOINT LThumb
								{
									OFFSET 0 0 0
									CHANNELS 3 Zrotation Yrotation Xrotation
									End Site
									{
										OFFSET 0.51467 -0.00000 0.51467
									}
								}
							}
						}
					}
				}
				JOINT RightShoulder
				{
					OFFSET 0 0 0
					CHANNELS 3 Zrotation Yrotation Xrotation
					JOINT RightArm
					{
						OFFSET -3.33565 1.14597 0.05047
						CHANNELS 3 Zrotation Yrotation Xrotation
						JOINT RightForeArm
						{
							OFFSET -5.49020 -0.00000 0.00000
							CHANNELS 3 Zrotation Yrotation Xrotation
							JOINT RightHand
							{
								OFFSET -3.20659 -0.00000 -0.00000
								CHANNELS 3 Zrotation Yrotation Xrotation
								JOINT RightFingerBase
								{
									OFFSET 0 0 0
									CHANNELS 3 Zrotation Yrotation Xrotation
									JOINT RightHandIndex1
									{
										OFFSET -0.69188 -0.00000 0.00000
										CHANNELS 3 Zrotation Yrotation Xrotation
										End Site
										{
											OFFSET -0.55781 -0.00000 0.00000
										}
									}
								}
								JOINT RThumb
								{
									OFFSET 0 0 0
									CHANNELS 3 Zrotation Yrotation Xrotation
									End Site
									{
										OFFSET -0.56633 -0.00000 0.56633
									}
								}
							}
						}
					}
				}
			}
		}
	}
}
MOTION
Frames: 9
Frame Time: .0083333
0.4911 17.5153 9.4370 -9.2784 -0.5044 6.3242 0.0000 0.0000 0.0000 -20.1185 -37.5311 27.4854 0.0676 -1.6780 -4.6164 -5.0469 40.8766 -38.8260 0.1278 2.3044 6.3476 0.0000 0.0000 0.0000 29.1516 20.2096 4.4496 -0.1529 -2.5194 6.9433 0.2001 -15.0621 -19.1206 -0.0007 -0.1747 0.4800 6.1025 1.0447 -2.2348 1.2926 1.7659 -11.3810 -2.1304 0.3677 -10.7912 -4.1558 -3.5954 0.3521 10.4017 -6.1214 14.7180 3.6602 -2.7070 4.7670 -0.0000 0.0000 0.0000 -63.5081 -57.8632 26.1422 143.4749 -45.8709 -104.1018 -0.0000 0.0000 -21.5361 26.6917 -12.4904 -6.2057 -7.1250 0.0000 -0.0000 -0.3931 16.0548 0.2691 -0.0000 0.0000 0.0000 38.2512 52.0662 4.1967 -145.5382 44.4240 -105.5647 0.0000 0.0000 7.1329 -5.2259 -36.2860 3.0984 7.1250 -0.0000 -0.0000 34.8719 -62.9792 -16.2286
0.4903 17.5140 9.4368 -9.3277 -0.4572 6.1510 0.0000 0.0000 0.0000 -20.0166 -37.2758 27.4626 0.0670 -1.6702 -4.5949 -5.0008 40.6921 -38.5636 0.1259 2.2875 6.3009 0.0000 0.0000 0.0000 29.2454 20.0316 4.4834 -0.1612 -2.5870 7.1309 0.1724 -14.9188 -19.2324 -0.0021 -0.2959 0.8131 5.8769 0.9452 -2.7563 1.5471 1.5767 -10.8957 -1.7115 0.3423 -9.9418 -4.2756 -3.4514 -0.3148 10.1421 -5.9780 15.9202 3.5987 -2.6067 5.2353 -0.0000 -0.0000 0.0000 -61.4891 -59.7584 24.3846 141.7018 -47.0287 -102.8166 -0.0000 0.0000 -20.5570 27.3161 -14.3199 -7.2800 -7.1250 0.0000 -0.0000 -0.1159 13.9502 0.0845 -0.0000 -0.0000 0.0000 35.2146 53.5591 2.0122 -144.0159 45.5022 -104.4888 0.0000 0.0000 8.7087 -7.1966 -35.5084 4.1946 7.1250 -0.0000 -0.0000 31.9655 -62.8551 -14.6305
0.4888 17.5127 9.4373 -9.3555 -0.3998 6.0525 0.0000 0.0000 0.0000 -19.8316 -37.0190 27.2720 0.0654 -1.6503 -4.5402 -5.0107 40.5472 -38.1108 0.1062 2.1016 5.7864 0.0000 0.0000 0.0000 29.2955 19.9110 4.4570 -0.1690 -2.6486 7.3019 0.1563 -14.8298 -19.2882 -0.0028 -0.3390 0.9315 5.8696 0.9111 -2.7032 1.5852 1.5367 -10.8705 -1.6655 0.3256 -9.9487 -4.1717 -3.3866 -0.6712 9.8143 -5.9570 17.2639 3.4803 -2.5667 5.7010 -0.0000 0.0000 0.0000 -60.0250 -60.9106 23.5226 140.2949 -47.8942 -101.7799 -0.0000 0.0000 -20.0547 28.2746 -14.8786 -7.8634 -7.1250 0.0000 -0.0000 0.4779 13.1930 -0.3562 -0.0000 0.0000 0.0000 32.9746 54.2730 0.4660 -142.5931 46.4563 -103.4656 0.0000 0.0000 10.2536 -8.7225 -34.9208 5.0192 7.1250 -0.0000 -0.0000 29.7405 -62.7552 -13.4430
0.4878 17.5127 9.4376 -9.3251 -0.3669 6.0021 0.0000 0.0000 0.0000 -19.7287 -36.8298 27.0953 0.0644 -1.6369 -4.5032 -4.9943 40.4026 -37.7973 0.0974 2.0123 5.5396 0.0000 0.0000 0.0000 29.2761 19.8806 4.4258 -0.1756 -2.6989 7.4417 0.1513 -14.8142 -19.3240 -0.0019 -0.2837 0.7794 5.8120 0.8611 -2.6867 1.6086 1.4687 -10.8337 -1.6051 0.2997 -9.9220 -3.8986 -3.3244 -1.0086 9.3244 -5.9002 18.4037 3.2827 -2.5167 6.0936 0.0000 -0.0000 0.0000 -58.4377 -61.8559 22.3608 139.3175 -48.4691 -101.0514 -0.0000 0.0000 -20.1384 28.9771 -15.6082 -8.4748 -7.1250 0.0000 -0.0000 0.8726 12.2711 -0.6673 0.0000 -0.0000 0.0000 30.9522 54.9569 -1.0397 -141.4016 47.2172 -102.5966 0.0000 0.0000 11.1834 -9.5935 -34.2479 5.4336 7.1250 -0.0000 -0.0000 28.1208 -62.4007 -12.4124
0.4875 17.5134 9.4379 -9.2934 -0.3540 5.9887 0.0000 0.0000 0.0000 -19.7007 -36.7521 27.0069 0.0636 -1.6278 -4.4781 -4.9735 40.3122 -37.6587 0.0984 2.0231 5.5694 0.0000 0.0000 0.0000 29.2411 19.8801 4.3762 -0.1807 -2.7381 7.5505 0.1437 -14.7883 -19.3752 -0.0016 -0.2550 0.7007 5.7812 0.8161 -2.6916 1.6021 1.4051 -10.8147 -1.5913 0.2715 -9.9017 -3.6395 -3.2486 -1.1817 8.9608 -5.8251 19.3325 3.1307 -2.4613 6.3971 0.0000 -0.0000 0.0000 -56.7609 -62.6265 21.0871 138.6840 -48.8305 -100.5759 -0.0000 0.0000 -20.4712 29.6680 -17.1659 -9.5437 -7.1250 0.0000 -0.0000 1.1521 10.4123 -0.9251 0.0000 -0.0000 0.0000 29.2709 55.5213 -2.4246 -140.5334 47.7507 -101.9566 0.0000 0.0000 11.3259 -9.9317 -33.5620 5.5290 7.1250 -0.0000 -0.0000 27.0752 -61.8891 -11.5858
0.4875 17.5141 9.4385 -9.2819 -0.3382 6.0139 0.0000 0.0000 0.0000 -19.6534 -36.7221 26.9156 0.0632 -1.6216 -4.4610 -4.9574 40.2544 -37.5866 0.0958 1.9957 5.4938 0.0000 0.0000 0.0000 29.2149 19.8888 4.3110 -0.1837 -2.7605 7.6127 0.1409 -14.7750 -19.3887 -0.0010 -0.2084 0.5726 5.7918 0.7881 -2.7247 1.5734 1.3631 -10.8201 -1.6251 0.2484 -9.8906 -3.4854 -3.1566 -1.2178 8.8287 -5.7507 20.1382 3.0732 -2.4041 6.6488 -0.0000 0.0000 0.0000 -55.0923 -63.2544 19.9168 138.2772 -49.0581 -100.2691 -0.0000 0.0000 -20.2574 31.3027 -19.1625 -11.2879 -7.1250 0.0000 -0.0000 1.9481 7.8584 -1.6644 -0.0000 0.0000 0.0000 27.7468 55.8974 -3.7880 -139.9263 48.1135 -101.5059 0.0000 0.0000 10.8967 -10.0807 -32.8632 5.5102 7.1250 -0.0000 -0.0000 26.2470 -61.3117 -10.8436
0.4878 17.5146 9.4392 -9.2892 -0.3118 6.0412 0.0000 0.0000 0.0000 -19.6087 -36.7348 26.8718 0.0636 -1.6270 -4.4758 -4.9488 40.2356 -37.5817 0.0943 1.9808 5.4525 0.0000 0.0000 0.0000 29.2157 19.9015 4.2894 -0.1837 -2.7608 7.6135 0.1419 -14.7824 -19.3876 -0.0014 -0.2397 0.6585 6.0773 0.8693 -2.0967 1.3218 1.5357 -11.2570 -2.0721 0.2620 -10.7505 -3.3017 -3.1778 -0.9398 8.8380 -5.8804 21.1047 3.0506 -2.4372 6.9165 -0.0000 0.0000 0.0000 -54.4102 -63.4020 20.0901 138.0893 -49.1620 -100.1271 -0.0000 0.0000 -19.4324 34.1817 -21.0203 -13.6908 -7.1250 0.0000 -0.0000 3.4705 5.1034 -3.1539 -0.0000 0.0000 0.0000 27.2481 55.4143 -4.2768 -139.6382 48.2828 -101.2912 0.0000 0.0000 10.5336 -10.3110 -32.4131 5.5698 7.1250 -0.0000 -0.0000 25.5907 -60.9688 -10.3424
0.4880 17.5152 9.4391 -9.3046 -0.2807 6.0644 0.0000 0.0000 0.0000 -19.6803 -36.8942 26.9897 0.0639 -1.6309 -4.4866 -4.9471 40.3024 -37.7778 0.1001 2.0405 5.6177 0.0000 0.0000 0.0000 29.2278 19.9130 4.2961 -0.1818 -2.7463 7.5732 0.1420 -14.7977 -19.4099 -0.0026 -0.3313 0.9104 6.1305 0.8613 -2.0361 1.2770 1.5264 -11.2194 -2.1503 0.2505 -10.7429 -3.2163 -3.1513 -1.1034 8.7943 -5.8819 21.6022 3.0240 -2.4182 7.1044 0.0000 0.0000 0.0000 -52.7663 -63.9233 18.7594 138.2014 -49.1001 -100.2118 -0.0000 0.0000 -18.7786 37.2209 -22.1709 -15.9953 -7.1250 0.0000 -0.0000 5.1227 2.9732 -4.8698 0.0000 0.0000 0.0000 25.8185 55.4719 -5.6164 -139.4470 48.3941 -101.1483 0.0000 0.0000 10.7011 -10.6634 -32.4225 5.7647 7.1250 -0.0000 -0.0000 25.2326 -61.0624 -10.2432
0.4883 17.5157 9.4394 -9.2884 -0.2744 6.1022 0.0000 0.0000 0.0000 -19.8575 -37.1213 27.1940 0.0644 -1.6378 -4.5058 -4.9295 40.3936 -38.1259 0.1101 2.1397 5.8919 0.0000 0.0000 0.0000 29.1919 19.9196 4.2904 -0.1784 -2.7204 7.5013 0.1495 -14.8452 -19.3935 -0.0014 -0.2413 0.6630 5.8711 0.7389 -2.5870 1.4689 1.2986 -10.7519 -1.7792 0.2046 -9.8967 -3.1647 -3.0510 -1.5994 8.5239 -5.7026 21.7901 2.9323 -2.3314 7.2337 -0.0000 -0.0000 0.0000 -50.1118 -64.6115 15.7942 138.7624 -48.7863 -100.6349 -0.0000 0.0000 -19.0111 38.9032 -22.6505 -17.2641 -7.1250 0.0000 -0.0000 6.0381 1.9151 -5.8659 -0.0000 -0.0000 0.0000 23.5631 56.0949 -7.7182 -139.4084 48.4165 -101.1195 0.0000 0.0000 11.0269 -10.9828 -32.4641 5.9471 7.1250 -0.0000 -0.0000 24.9366 -61.1770 -10.1824
